# xmcd
#
# Track frame offsets:
#	150
#	22636
#	38320
#	58224
#	84395
#	103294
#	126117
#	148190
#	166664
#	189062
#	216203
#
# Disc length: 3252 seconds
#
# Revision: 8
# Processed by: cddbd v1.5.2PL0 Copyright (c) Steve Scherf et al.
# Submitted via: Jack! The Knife 18 Bulletproof
#
DISCID=860cb20b
DTITLE=White Lion - Big Game
DYEAR=1989
DGENRE=Hard Rock
TTITLE0=Goin' Home Tonight
TTITLE1=Dirty Woman
TTITLE2=Little Fighter
TTITLE3=Broken Home
TTITLE4=Baby Be Mine
TTITLE5=Living On The Edge
TTITLE6=Let's Get Crazy
TTITLE7=Don't Say It's Over
TTITLE8=If My Mind Is Evil
TTITLE9=Radar Love
TTITLE10=Cry For Freedom
EXTD=Michael Wagener
EXTT0=Bratta, Tramp
EXTT1=Bratta, Tramp
EXTT2=Bratta, Tramp
EXTT3=Bratta, Tramp
EXTT4=Bratta, Tramp
EXTT5=Bratta, Tramp
EXTT6=Bratta, Tramp
EXTT7=Bratta, Tramp
EXTT8=Bratta, Tramp
EXTT9=Kooymans, Hay
EXTT10=Bratta, Tramp
PLAYORDER=
